HIERARCHY
ROOT joint_Root
{
	OFFSET 0.0 0.0 0.0
	CHANNELS 6 Xposition Yposition Zposition Zrotation Xrotation Yrotation 
	JOINT Hips
	{
		OFFSET -17.1583 93.1646 452.98
		CHANNELS 6 Xposition Yposition Zposition Zrotation Xrotation Yrotation 
		JOINT Spine
		{
			OFFSET 15.7357 0.0 0.0
			CHANNELS 6 Xposition Yposition Zposition Zrotation Xrotation Yrotation 
			JOINT Chest
			{
				OFFSET 8.98455 -0.406207 0.0
				CHANNELS 6 Xposition Yposition Zposition Zrotation Xrotation Yrotation 
				JOINT Neck
				{
					OFFSET 16.3773 0.0 0.0
					CHANNELS 6 Xposition Yposition Zposition Zrotation Xrotation Yrotation 
					JOINT Head
					{
						OFFSET 6.45672 0.0 0.0
						CHANNELS 6 Xposition Yposition Zposition Zrotation Xrotation Yrotation 
						End Site
						{
							OFFSET 0.0 0.0 0.0
						}
					}
				}
				JOINT Shoulder_L
				{
					OFFSET 12.9942 -0.242716 4.98039
					CHANNELS 6 Xposition Yposition Zposition Zrotation Xrotation Yrotation 
					JOINT UpperArm_L
					{
						OFFSET 5.34809 0.0 0.0
						CHANNELS 6 Xposition Yposition Zposition Zrotation Xrotation Yrotation 
						JOINT LowerArm_L
						{
							OFFSET 24.3286 1.87007e-05 0.0
							CHANNELS 6 Xposition Yposition Zposition Zrotation Xrotation Yrotation 
							JOINT Hand_L
							{
								OFFSET 22.2916 0.0 0.0
								CHANNELS 6 Xposition Yposition Zposition Zrotation Xrotation Yrotation 
								End Site
								{
									OFFSET 0.0 0.0 0.0
								}
							}
						}
					}
				}
				JOINT Shoulder_R
				{
					OFFSET 12.9945 -0.242716 -4.98039
					CHANNELS 6 Xposition Yposition Zposition Zrotation Xrotation Yrotation 
					JOINT UpperArm_R
					{
						OFFSET -5.34813 0.0 0.0
						CHANNELS 6 Xposition Yposition Zposition Zrotation Xrotation Yrotation 
						JOINT LowerArm_R
						{
							OFFSET -24.3289 0.000322201 0.0
							CHANNELS 6 Xposition Yposition Zposition Zrotation Xrotation Yrotation 
							JOINT Hand_R
							{
								OFFSET -22.2915 -0.000108084 0.0
								CHANNELS 6 Xposition Yposition Zposition Zrotation Xrotation Yrotation 
								End Site
								{
									OFFSET 0.0 0.0 0.0
								}
							}
						}
					}
				}
			}
		}
		JOINT UpperLeg_L
		{
			OFFSET -2.19248 -6.46944 0.0
			CHANNELS 6 Xposition Yposition Zposition Zrotation Xrotation Yrotation 
			JOINT LowerLeg_L
			{
				OFFSET 39.0811 0.0 -1.23785e-05
				CHANNELS 6 Xposition Yposition Zposition Zrotation Xrotation Yrotation 
				JOINT Foot_L
				{
					OFFSET 40.9854 0.0 -1.26872e-05
					CHANNELS 6 Xposition Yposition Zposition Zrotation Xrotation Yrotation 
					JOINT Toes_L
					{
						OFFSET 11.7543 0.0 0.0
						CHANNELS 6 Xposition Yposition Zposition Zrotation Xrotation Yrotation 
						End Site
						{
							OFFSET 0.0 0.0 0.0
						}
					}
				}
			}
		}
		JOINT UpperLeg_R
		{
			OFFSET -2.19251 6.46944 0.0
			CHANNELS 6 Xposition Yposition Zposition Zrotation Xrotation Yrotation 
			JOINT LowerLeg_R
			{
				OFFSET -39.0811 -0.00228153 -0.0401928
				CHANNELS 6 Xposition Yposition Zposition Zrotation Xrotation Yrotation 
				JOINT Foot_R
				{
					OFFSET -40.9854 0.0 0.0
					CHANNELS 6 Xposition Yposition Zposition Zrotation Xrotation Yrotation 
					JOINT Toes_R
					{
						OFFSET -11.7543 0.0 0.0
						CHANNELS 6 Xposition Yposition Zposition Zrotation Xrotation Yrotation 
						End Site
						{
							OFFSET 0.0 0.0 0.0
						}
					}
				}
			}
		}
	}
}
MOTION
Frames:	8
Frame Time:	0.0333333
0.000000 0.000000 0.000000 0.000000 0.000000 -0.000000 -3.542600 93.168300 1.096070 88.352600 5.494430 -0.556776 15.735700 0.000005 -0.000001 59.385800 87.206700 -56.473200 8.984550 -0.406207 -0.000000 -2.874180 -3.114100 5.748790 16.377300 -0.000001 -0.000001 0.937222 0.545071 -4.877040 6.456720 -0.000001 -0.000000 -1.799300 -0.400537 -7.146620 12.994200 -0.242716 4.980390 -92.628900 8.640900 -73.006100 5.348090 -0.000007 -0.000001 -74.469100 26.028800 1.850460 24.328600 0.000019 0.000005 11.131300 23.903000 -25.901200 22.291600 -0.000001 0.000005 -1.880600 5.049120 6.256570 12.994500 -0.242716 -4.980390 88.872100 3.682340 -72.958500 -5.348130 -0.000001 -0.000004 -69.101200 19.794600 -3.981490 -24.328900 0.000322 -0.000009 1.741710 5.413540 -17.866500 -22.291500 -0.000108 -0.000004 -6.859130 5.252630 1.348840 -2.192480 -6.469440 -0.000000 -170.742000 -4.014030 -0.368822 39.081100 -0.000007 -0.000012 -0.008456 0.045624 10.498800 40.985400 -0.000006 -0.000013 -6.207190 17.719500 -65.516000 11.754300 -0.000000 0.000003 -0.000678 0.178344 -9.342600 -2.192510 6.469440 -0.000001 178.961000 9.668690 -178.318000 -39.081100 -0.002282 -0.040193 0.008484 -0.027577 10.569500 -40.985400 0.000008 0.000006 -5.943580 4.058380 -67.911500 -11.754300 -0.000006 -0.000006 -0.009293 0.265943 -5.770240
0.000000 0.000000 0.000000 0.000000 0.000000 -0.000000 -3.427900 93.161900 1.145460 88.323700 5.885640 -0.613419 15.735700 0.000005 -0.000001 56.448700 87.125800 -53.460600 8.984550 -0.406207 -0.000000 -2.880530 -3.453210 5.891370 16.377300 -0.000001 -0.000001 0.722485 0.731516 -5.212520 6.456720 -0.000001 -0.000000 -2.504930 0.037636 -8.489210 12.994200 -0.242716 4.980390 -92.671100 8.744140 -72.939800 5.348090 -0.000007 -0.000001 -74.434900 25.105300 2.027520 24.328600 0.000019 0.000005 11.289400 23.566500 -26.533000 22.291600 -0.000001 0.000005 -1.611640 5.047660 6.288770 12.994500 -0.242716 -4.980390 88.677300 4.088600 -72.056200 -5.348130 -0.000001 -0.000004 -66.427200 13.021100 -4.207400 -24.328900 0.000322 -0.000009 3.365540 9.839030 -18.995400 -22.291500 -0.000108 -0.000004 -11.384400 5.275230 0.758734 -2.192480 -6.469440 -0.000000 -170.778000 -4.030600 -0.636973 39.081100 -0.000007 -0.000012 -0.007974 0.041664 10.834200 40.985400 -0.000006 -0.000013 -5.891720 18.078000 -65.795800 11.754300 -0.000000 0.000003 -0.000627 0.177590 -9.373240 -2.192510 6.469440 -0.000001 178.840000 10.387300 -178.219000 -39.081100 -0.002282 -0.040193 0.006365 -0.016464 10.417300 -40.985400 0.000008 0.000006 -6.298440 4.450250 -67.734900 -11.754300 -0.000006 -0.000006 -0.008891 0.262820 -5.897880
0.000000 0.000000 0.000000 0.000000 0.000000 -0.000000 -3.285320 93.163400 1.233900 88.256500 6.218100 -0.698106 15.735700 0.000005 -0.000001 53.269700 87.080300 -50.219000 8.984550 -0.406207 -0.000000 -2.981010 -3.776640 6.005670 16.377300 -0.000001 -0.000001 0.603268 0.905591 -5.597100 6.456720 -0.000001 -0.000000 -3.023650 0.512108 -9.979310 12.994200 -0.242716 4.980390 -92.673500 8.794480 -73.016600 5.348090 -0.000007 -0.000001 -74.349900 24.203000 2.404110 24.328600 0.000019 0.000005 11.265600 23.069100 -26.946700 22.291600 -0.000001 0.000005 -1.552860 5.054350 6.141080 12.994500 -0.242716 -4.980390 88.580200 4.191110 -71.266200 -5.348130 -0.000001 -0.000004 -63.194800 3.978650 -4.749490 -24.328900 0.000322 -0.000009 2.945810 8.878510 -18.439400 -22.291500 -0.000108 -0.000004 -13.331700 5.252520 1.364770 -2.192480 -6.469440 -0.000000 -170.802000 -4.084660 -0.859654 39.081100 -0.000007 -0.000012 -0.008680 0.044224 11.103700 40.985400 -0.000006 -0.000013 -5.545810 18.382500 -66.116200 11.754300 -0.000000 0.000003 -0.000860 0.181021 -9.233850 -2.192510 6.469440 -0.000001 178.693000 11.100400 -177.993000 -39.081100 -0.002282 -0.040193 0.002838 0.002841 10.004900 -40.985400 0.000008 0.000006 -6.895290 4.957220 -67.400600 -11.754300 -0.000006 -0.000006 -0.008988 0.263582 -5.866750
0.000000 0.000000 0.000000 0.000000 0.000000 -0.000000 -3.095350 93.183800 1.310310 88.223700 6.468140 -1.026770 15.735700 0.000005 -0.000001 49.985300 87.155600 -46.968500 8.984550 -0.406207 -0.000000 -3.301710 -3.947090 5.923100 16.377300 -0.000001 -0.000001 0.244119 1.036000 -5.945340 6.456720 -0.000001 -0.000000 -3.083520 0.927263 -11.586500 12.994200 -0.242716 4.980390 -92.670600 8.870710 -73.170300 5.348090 -0.000007 -0.000001 -73.822100 23.615500 2.707320 24.328600 0.000019 0.000005 11.224000 22.810100 -27.106400 22.291600 -0.000001 0.000005 -1.748910 5.061640 5.979400 12.994500 -0.242716 -4.980390 88.620800 3.933590 -70.659800 -5.348130 -0.000001 -0.000004 -59.618900 -6.203990 -5.576790 -24.328900 0.000322 -0.000009 0.604395 2.163720 -15.514100 -22.291500 -0.000108 -0.000004 -10.586200 5.248500 1.489640 -2.192480 -6.469440 -0.000000 -170.881000 -4.343940 -1.201050 39.081100 -0.000007 -0.000012 -0.010496 0.053313 11.136900 40.985400 -0.000006 -0.000013 -5.432970 18.805300 -66.149200 11.754300 -0.000000 0.000003 -0.000877 0.181279 -9.223380 -2.192510 6.469440 -0.000001 178.520000 11.759800 -177.890000 -39.081100 -0.002282 -0.040193 0.000259 0.018800 9.308250 -40.985400 0.000008 0.000006 -7.628730 5.450410 -66.816000 -11.754300 -0.000006 -0.000006 -0.008661 0.261014 -5.971690
0.000000 0.000000 0.000000 0.000000 0.000000 -0.000000 -2.917870 93.241400 1.387760 88.253700 6.749540 -1.520180 15.735700 0.000005 -0.000001 46.134300 87.304900 -43.300600 8.984550 -0.406207 -0.000000 -3.778650 -4.018240 5.538910 16.377300 -0.000001 -0.000001 -0.254735 1.162650 -6.592030 6.456720 -0.000001 -0.000000 -2.911690 1.058030 -13.044100 12.994200 -0.242716 4.980390 -92.647200 8.828910 -73.235700 5.348090 -0.000007 -0.000001 -72.870800 22.987000 2.749270 24.328600 0.000019 0.000005 11.406500 23.369600 -26.959100 22.291600 -0.000001 0.000005 -1.991470 5.069740 5.798800 12.994500 -0.242716 -4.980390 88.853200 3.180550 -70.159100 -5.348130 -0.000001 -0.000004 -55.777100 -16.127900 -7.032110 -24.328900 0.000322 -0.000009 -1.476140 -8.376680 -10.076600 -22.291500 -0.000108 -0.000004 -5.985710 5.301000 0.065614 -2.192480 -6.469440 -0.000000 -170.980000 -4.330300 -1.451170 39.081100 -0.000007 -0.000012 -0.014388 0.076972 10.587300 40.985400 -0.000006 -0.000013 -6.061030 19.052800 -65.567500 11.754300 -0.000000 0.000003 -0.000885 0.181391 -9.218800 -2.192510 6.469440 -0.000001 178.275000 12.485500 -177.648000 -39.081100 -0.002282 -0.040193 -0.000651 0.028329 8.023720 -40.985400 0.000008 0.000006 -8.833820 6.021900 -65.861400 -11.754300 -0.000006 -0.000006 -0.008740 0.261634 -5.946360
0.000000 0.000000 0.000000 0.000000 0.000000 -0.000000 -2.763620 93.300900 1.464080 88.270600 7.090250 -2.085140 15.735700 0.000005 -0.000001 42.356000 87.478200 -39.824700 8.984550 -0.406207 -0.000000 -4.280070 -3.990060 4.917980 16.377300 -0.000001 -0.000001 -0.907430 1.291010 -7.452740 6.456720 -0.000001 -0.000000 -2.656340 1.022400 -14.729800 12.994200 -0.242716 4.980390 -92.611000 8.743810 -73.301600 5.348090 -0.000007 -0.000001 -71.528400 20.995200 2.700810 24.328600 0.000019 0.000005 12.023000 24.728600 -26.981600 22.291600 -0.000001 0.000005 -2.459090 5.080640 5.553900 12.994500 -0.242716 -4.980390 89.348500 1.757240 -69.650400 -5.348130 -0.000001 -0.000004 -51.999900 -25.905800 -8.260040 -24.328900 0.000322 -0.000009 -1.316350 -16.801300 -4.555900 -22.291500 -0.000108 -0.000004 -1.036300 5.304540 -0.081827 -2.192480 -6.469440 -0.000000 -171.029000 -4.228160 -1.744930 39.081100 -0.000007 -0.000012 -0.016635 0.094990 9.932900 40.985400 -0.000006 -0.000013 -6.856200 19.332800 -64.868800 11.754300 -0.000000 0.000003 -0.000823 0.180493 -9.255320 -2.192510 6.469440 -0.000001 178.185000 13.232000 -177.764000 -39.081100 -0.002282 -0.040193 0.000633 0.021284 7.258330 -40.985400 0.000008 0.000006 -9.401260 6.410690 -65.192700 -11.754300 -0.000006 -0.000006 -0.008773 0.261897 -5.935610
0.000000 0.000000 0.000000 0.000000 0.000000 -0.000000 -2.669640 93.380200 1.518030 88.389300 7.425630 -2.638350 15.735700 0.000005 -0.000001 39.354000 87.598500 -37.284100 8.984550 -0.406207 -0.000000 -4.651600 -3.934700 3.984210 16.377300 -0.000001 -0.000001 -1.675230 1.374680 -8.445000 6.456720 -0.000001 -0.000000 -2.759510 1.123050 -16.757900 12.994200 -0.242716 4.980390 -92.594600 8.615130 -73.169000 5.348090 -0.000007 -0.000001 -69.821000 18.029000 2.477450 24.328600 0.000019 0.000005 11.996900 25.018100 -26.678500 22.291600 -0.000001 0.000005 -2.057190 5.066720 5.864310 12.994500 -0.242716 -4.980390 90.207700 -0.540818 -69.015600 -5.348130 -0.000001 -0.000004 -49.111800 -35.185100 -9.124320 -24.328900 0.000322 -0.000009 -0.103948 -22.483600 -0.275505 -22.291500 -0.000108 -0.000004 6.835390 5.227130 1.946270 -2.192480 -6.469440 -0.000000 -171.072000 -4.191740 -1.728380 39.081100 -0.000007 -0.000012 -0.017099 0.112965 8.607060 40.985400 -0.000006 -0.000013 -8.458790 19.728400 -63.408500 11.754300 -0.000000 0.000003 -0.000786 0.179950 -9.277350 -2.192510 6.469440 -0.000001 178.092000 13.852300 -178.063000 -39.081100 -0.002282 -0.040193 0.002009 0.011133 6.838460 -40.985400 0.000008 0.000006 -9.573530 6.649920 -64.680100 -11.754300 -0.000006 -0.000006 -0.008163 0.257026 -6.134630
0.000000 0.000000 0.000000 0.000000 0.000000 -0.000000 -2.647040 93.494800 1.546720 88.497800 7.684870 -3.206450 15.735700 0.000005 -0.000001 36.181500 87.644000 -34.711900 8.984550 -0.406207 -0.000000 -4.938050 -3.962250 2.771460 16.377300 -0.000001 -0.000001 -2.162860 1.538790 -9.271260 6.456720 -0.000001 -0.000000 -3.495090 1.830270 -18.830500 12.994200 -0.242716 4.980390 -92.558000 8.396470 -72.988600 5.348090 -0.000007 -0.000001 -67.957900 14.117700 2.438670 24.328600 0.000019 0.000005 11.556800 24.327700 -26.398600 22.291600 -0.000001 0.000005 -0.434812 5.041120 6.425990 12.994500 -0.242716 -4.980390 91.244200 -3.116390 -68.225200 -5.348130 -0.000001 -0.000004 -46.573900 -41.873000 -9.416250 -24.328900 0.000322 -0.000009 -0.001156 -29.903900 -0.000172 -22.291500 -0.000108 -0.000004 16.514900 5.117390 4.668840 -2.192480 -6.469440 -0.000000 -170.994000 -4.159270 -0.985548 39.081100 -0.000007 -0.000012 -0.008538 0.085115 5.727600 40.985400 -0.000006 -0.000013 -11.052400 19.980700 -60.680300 11.754300 -0.000000 0.000003 -0.000511 0.175829 -9.444790 -2.192510 6.469440 -0.000001 178.086000 14.344100 -178.381000 -39.081100 -0.002282 -0.040193 0.003413 -0.000612 6.337870 -40.985400 0.000008 0.000006 -9.711630 6.792730 -64.088100 -11.754300 -0.000006 -0.000006 -0.008257 0.257789 -6.103450
